<svg xmlns="http://www.w3.org/2000/svg" xmlns:xlink="http://www.w3.org/1999/xlink" width="500" zoomAndPan="magnify" viewBox="0 0 375 374.999991" height="500" preserveAspectRatio="xMidYMid meet" version="1.0"><defs><clipPath id="e71b01a591"><path d="M 57 41.25 L 374 41.25 L 374 333.75 L 57 333.75 Z M 57 41.25 " clip-rule="nonzero"/></clipPath></defs><rect x="-37.5" width="450" fill="#ffffff" y="-37.499999" height="449.999989" fill-opacity="1"/><rect x="-37.5" width="450" fill="#ffffff" y="-37.499999" height="449.999989" fill-opacity="1"/><rect x="-37.5" width="450" fill="#ffffff" y="-37.499999" height="449.999989" fill-opacity="1"/><g clip-path="url(#e71b01a591)"><path fill="#202020" d="M 68.414062 282.320312 L 257.757812 282.320312 C 266.542969 282.320312 273.984375 275.769531 275.175781 267.136719 L 298.246094 93.945312 C 298.246094 93.945312 298.246094 93.945312 298.246094 93.871094 C 302.117188 63.875 327.871094 41.175781 358.164062 41.175781 L 362.703125 41.175781 C 368.878906 41.175781 373.867188 46.164062 373.867188 52.339844 C 373.867188 58.515625 368.878906 63.503906 362.703125 63.503906 L 358.164062 63.503906 C 339.035156 63.503906 322.808594 77.792969 320.351562 96.773438 C 320.351562 96.773438 320.351562 96.773438 320.351562 96.847656 L 297.28125 270.039062 C 294.675781 289.761719 277.707031 304.648438 257.757812 304.648438 L 251.0625 304.648438 C 250.835938 320.875 237.738281 333.972656 221.4375 333.972656 C 205.140625 333.972656 192.039062 320.875 191.816406 304.648438 L 145.523438 304.648438 C 145.300781 320.875 132.199219 333.972656 115.902344 333.972656 C 99.601562 333.972656 86.5 320.875 86.277344 304.648438 L 68.414062 304.648438 C 62.238281 304.648438 57.25 299.664062 57.25 293.484375 C 57.25 287.308594 62.238281 282.320312 68.414062 282.320312 Z M 68.414062 282.320312 " fill-opacity="1" fill-rule="nonzero"/></g><path fill="#77bf3f" d="M 135.25 92.457031 L 172.09375 87.992188 C 186.160156 110.46875 216.675781 149.167969 270.710938 172.242188 L 260.4375 248.976562 C 184.152344 204.992188 147.234375 123.9375 135.25 92.457031 Z M 135.25 92.457031 " fill-opacity="1" fill-rule="nonzero"/><path fill="#50b948" d="M 112.402344 95.210938 C 122.898438 125.128906 160.632812 216.378906 246 266.691406 L 128.851562 266.691406 C 89.554688 197.996094 79.878906 122.898438 77.644531 99.378906 Z M 112.402344 95.210938 " fill-opacity="1" fill-rule="nonzero"/><path fill="#fbcc06" d="M 273.835938 149.167969 C 234.984375 131.082031 210.496094 104.214844 196.953125 85.011719 L 269.519531 76.304688 C 272.941406 75.859375 276.367188 77.125 278.824219 79.582031 C 281.277344 82.035156 282.394531 85.460938 281.949219 88.882812 Z M 273.835938 149.167969 " fill-opacity="1" fill-rule="nonzero"/><path fill="#38a34a" d="M 3.886719 111.582031 C 5.75 109.203125 8.425781 107.714844 11.40625 107.339844 L 55.539062 102.058594 C 57.773438 126.992188 66.925781 197.917969 103.324219 266.691406 L 57.328125 266.691406 C 36.785156 266.691406 19.21875 251.359375 16.539062 230.964844 L 1.804688 119.917969 C 1.207031 116.941406 2.027344 113.964844 3.886719 111.582031 Z M 3.886719 111.582031 " fill-opacity="1" fill-rule="nonzero"/></svg>