<svg xmlns="http://www.w3.org/2000/svg" xmlns:xlink="http://www.w3.org/1999/xlink" width="500" zoomAndPan="magnify" viewBox="0 0 375 374.999991" height="500" preserveAspectRatio="xMidYMid meet" version="1.0"><defs><g/><clipPath id="59308b91ec"><path d="M 19 138.597656 L 127.5 138.597656 L 127.5 238.347656 L 19 238.347656 Z M 19 138.597656 " clip-rule="nonzero"/></clipPath><clipPath id="7b85e952fc"><path d="M 0.234375 159 L 36 159 L 36 216 L 0.234375 216 Z M 0.234375 159 " clip-rule="nonzero"/></clipPath></defs><g clip-path="url(#59308b91ec)"><path fill="#202020" d="M 23.496094 220.808594 L 87.871094 220.808594 C 90.859375 220.808594 93.390625 218.574219 93.792969 215.628906 L 101.640625 156.566406 C 101.640625 156.566406 101.640625 156.566406 101.640625 156.542969 C 102.953125 146.3125 111.710938 138.570312 122.007812 138.570312 L 123.554688 138.570312 C 125.652344 138.570312 127.347656 140.273438 127.347656 142.378906 C 127.347656 144.484375 125.652344 146.1875 123.554688 146.1875 L 122.007812 146.1875 C 115.507812 146.1875 109.988281 151.058594 109.15625 157.53125 C 109.15625 157.53125 109.15625 157.53125 109.15625 157.558594 L 101.308594 216.621094 C 100.425781 223.347656 94.65625 228.421875 87.871094 228.421875 L 85.59375 228.421875 C 85.519531 233.957031 81.066406 238.421875 75.523438 238.421875 C 69.980469 238.421875 65.527344 233.957031 65.453125 228.421875 L 49.710938 228.421875 C 49.636719 233.957031 45.183594 238.421875 39.640625 238.421875 C 34.097656 238.421875 29.644531 233.957031 29.570312 228.421875 L 23.496094 228.421875 C 21.394531 228.421875 19.699219 226.722656 19.699219 224.617188 C 19.699219 222.507812 21.394531 220.808594 23.496094 220.808594 Z M 23.496094 220.808594 " fill-opacity="1" fill-rule="nonzero"/></g><path fill="#77bf3f" d="M 46.21875 156.058594 L 58.746094 154.535156 C 63.527344 162.203125 73.902344 175.402344 92.277344 183.269531 L 88.785156 209.4375 C 62.84375 194.4375 50.292969 166.796875 46.21875 156.058594 Z M 46.21875 156.058594 " fill-opacity="1" fill-rule="nonzero"/><path fill="#50b948" d="M 38.453125 157 C 42.019531 167.203125 54.847656 198.320312 83.875 215.476562 L 44.042969 215.476562 C 30.683594 192.050781 27.394531 166.441406 26.632812 158.421875 Z M 38.453125 157 " fill-opacity="1" fill-rule="nonzero"/><path fill="#fbcc06" d="M 93.339844 175.402344 C 80.128906 169.234375 71.804688 160.070312 67.199219 153.519531 L 91.871094 150.550781 C 93.035156 150.398438 94.199219 150.832031 95.035156 151.667969 C 95.867188 152.507812 96.25 153.671875 96.097656 154.839844 Z M 93.339844 175.402344 " fill-opacity="1" fill-rule="nonzero"/><g clip-path="url(#7b85e952fc)"><path fill="#38a34a" d="M 1.554688 162.582031 C 2.1875 161.769531 3.101562 161.261719 4.113281 161.136719 L 19.117188 159.332031 C 19.878906 167.835938 22.988281 192.027344 35.363281 215.476562 L 19.726562 215.476562 C 12.742188 215.476562 6.769531 210.25 5.859375 203.296875 L 0.847656 165.425781 C 0.644531 164.410156 0.921875 163.394531 1.554688 162.582031 Z M 1.554688 162.582031 " fill-opacity="1" fill-rule="nonzero"/></g><g fill="#202020" fill-opacity="1"><g transform="translate(138.69757, 185.102634)"><g><path d="M 17.863281 0.800781 C 26.164062 0.800781 33.035156 -3.378906 33.035156 -12.023438 C 33.035156 -21.011719 25.363281 -22.902344 19.292969 -24.449219 C 15 -25.476562 11.566406 -26.335938 11.566406 -29.140625 C 11.566406 -31.777344 14.371094 -32.980469 17.175781 -32.980469 C 20.441406 -32.980469 23.300781 -31.375 23.300781 -27.882812 L 31.832031 -27.882812 C 31.832031 -35.898438 26.625 -40.824219 17.40625 -40.824219 C 8.53125 -40.824219 2.863281 -36.472656 2.863281 -28.800781 C 2.863281 -20.152344 10.191406 -18.378906 16.261719 -16.890625 C 20.613281 -15.917969 24.277344 -15.058594 24.277344 -11.910156 C 24.277344 -8.933594 21.070312 -7.214844 17.804688 -7.214844 C 14.257812 -7.214844 11.050781 -9.101562 11.050781 -12.941406 L 2.289062 -12.941406 C 2.289062 -4.351562 8.644531 0.800781 17.863281 0.800781 Z M 17.863281 0.800781 "/></g></g></g><g fill="#202020" fill-opacity="1"><g transform="translate(174.130304, 185.102634)"><g><path d="M 49.695312 -40.078125 L 41.96875 -13.453125 L 31.203125 -39.621094 L 28.285156 -39.621094 L 17.75 -13.398438 L 9.847656 -40.078125 L 0.6875 -40.078125 L 13.28125 0 L 21.011719 0 L 29.714844 -22.445312 L 38.648438 0 L 46.375 0 L 58.742188 -40.078125 Z M 49.695312 -40.078125 "/></g></g></g><g fill="#202020" fill-opacity="1"><g transform="translate(233.719142, 185.102634)"><g><path d="M 4.582031 0 L 13.226562 0 L 13.226562 -40.078125 L 4.582031 -40.078125 Z M 4.582031 0 "/></g></g></g><g fill="#202020" fill-opacity="1"><g transform="translate(251.578621, 185.102634)"><g><path d="M 28.511719 -32.003906 L 28.511719 -40.078125 L 4.582031 -40.078125 L 4.582031 0 L 13.226562 0 L 13.226562 -15.34375 L 27.023438 -15.34375 L 27.023438 -23.1875 L 13.226562 -23.1875 L 13.226562 -32.003906 Z M 28.511719 -32.003906 "/></g></g></g><g fill="#202020" fill-opacity="1"><g transform="translate(282.203041, 185.102634)"><g><path d="M 32.175781 -40.078125 L 1.203125 -40.078125 L 1.203125 -32.003906 L 12.367188 -32.003906 L 12.367188 0 L 21.011719 0 L 21.011719 -32.003906 L 32.175781 -32.003906 Z M 32.175781 -40.078125 "/></g></g></g><g fill="#202020" fill-opacity="1"><g transform="translate(138.69757, 221.387201)"><g><path d="M 33.332031 0 L 29.488281 -24.898438 L 24.082031 -24.898438 L 17.324219 -9.605469 L 10.566406 -24.898438 L 5.195312 -24.898438 L 1.28125 0 L 6.757812 0 L 9.214844 -16.21875 L 16.648438 -0.0351562 L 17.964844 -0.0351562 L 25.398438 -16.21875 L 27.851562 0 Z M 33.332031 0 "/></g></g></g><g fill="#202020" fill-opacity="1"><g transform="translate(173.369768, 221.387201)"><g><path d="M 18.140625 -19.207031 L 17.609375 -17.394531 C 15.9375 -18.851562 13.765625 -19.742188 11.277344 -19.742188 C 5.511719 -19.742188 1.210938 -15.402344 1.210938 -9.605469 C 1.210938 -3.804688 5.511719 0.570312 11.277344 0.570312 C 13.730469 0.570312 15.863281 -0.285156 17.5 -1.742188 L 17.964844 0 L 22.019531 0 L 22.019531 -19.207031 Z M 11.703125 -4.339844 C 8.679688 -4.339844 6.472656 -6.617188 6.472656 -9.605469 C 6.472656 -12.628906 8.679688 -14.867188 11.703125 -14.867188 C 14.726562 -14.867188 16.933594 -12.628906 16.933594 -9.605469 C 16.933594 -6.582031 14.726562 -4.339844 11.703125 -4.339844 Z M 11.703125 -4.339844 "/></g></g></g><g fill="#202020" fill-opacity="1"><g transform="translate(197.907018, 221.387201)"><g><path d="M 12.308594 -19.316406 C 9.816406 -19.316406 8.109375 -18.53125 6.722656 -16.824219 L 5.796875 -19.207031 L 2.488281 -19.207031 L 2.488281 0 L 7.683594 0 L 7.683594 -9.960938 C 7.683594 -13.089844 8.820312 -14.40625 11.738281 -14.40625 L 14.015625 -14.40625 L 14.015625 -19.316406 Z M 12.308594 -19.316406 "/></g></g></g><g fill="#202020" fill-opacity="1"><g transform="translate(212.380435, 221.387201)"><g><path d="M 20.097656 0 L 12.914062 -10.03125 L 19.421875 -19.207031 L 13.445312 -19.207031 L 7.683594 -10.671875 L 7.683594 -26.109375 L 2.488281 -26.109375 L 2.488281 0 L 7.683594 0 L 7.683594 -9.175781 L 13.800781 0 Z M 20.097656 0 "/></g></g></g><g fill="#202020" fill-opacity="1"><g transform="translate(232.33028, 221.387201)"><g><path d="M 21.128906 -9.640625 C 21.128906 -15.1875 17.074219 -19.742188 11.167969 -19.742188 C 5.476562 -19.742188 1.210938 -15.367188 1.210938 -9.605469 C 1.210938 -3.839844 5.511719 0.570312 11.167969 0.570312 C 15.652344 0.570312 19.316406 -2.097656 20.703125 -6.296875 L 15.261719 -6.296875 C 14.476562 -4.910156 12.984375 -4.054688 11.167969 -4.054688 C 8.644531 -4.054688 6.9375 -5.511719 6.472656 -8.144531 L 21.023438 -8.144531 C 21.09375 -8.644531 21.128906 -9.140625 21.128906 -9.640625 Z M 11.167969 -15.296875 C 13.515625 -15.296875 15.1875 -14.015625 15.9375 -11.667969 L 6.617188 -11.667969 C 7.222656 -13.945312 8.855469 -15.296875 11.167969 -15.296875 Z M 11.167969 -15.296875 "/></g></g></g><g fill="#202020" fill-opacity="1"><g transform="translate(254.662728, 221.387201)"><g><path d="M 11.878906 -4.625 C 9.960938 -4.625 8.894531 -5.691406 8.894531 -7.542969 L 8.894531 -15.011719 L 14.121094 -15.011719 L 14.121094 -19.207031 L 8.820312 -19.207031 L 8.820312 -24.1875 L 7.824219 -24.1875 L 0.25 -16.148438 L 0.25 -15.011719 L 3.699219 -15.011719 L 3.699219 -6.828125 C 3.699219 -2.597656 6.296875 0 10.527344 0 L 14.230469 0 L 14.230469 -4.625 Z M 11.878906 -4.625 "/></g></g></g><g fill="#202020" fill-opacity="1"><g transform="translate(269.954052, 221.387201)"><g><path d="M 12.414062 -24.898438 L 2.847656 -24.898438 L 2.847656 0 L 8.21875 0 L 8.21875 -7.753906 L 12.414062 -7.753906 C 17.429688 -7.753906 21.199219 -11.417969 21.199219 -16.328125 C 21.199219 -21.234375 17.394531 -24.898438 12.414062 -24.898438 Z M 12.164062 -12.734375 L 8.21875 -12.734375 L 8.21875 -19.882812 L 12.164062 -19.882812 C 14.300781 -19.882812 15.757812 -18.390625 15.757812 -16.328125 C 15.757812 -14.265625 14.300781 -12.734375 12.164062 -12.734375 Z M 12.164062 -12.734375 "/></g></g></g><g fill="#202020" fill-opacity="1"><g transform="translate(292.073131, 221.387201)"><g><path d="M 2.488281 0 L 7.683594 0 L 7.683594 -26.109375 L 2.488281 -26.109375 Z M 2.488281 0 "/></g></g></g><g fill="#202020" fill-opacity="1"><g transform="translate(302.243648, 221.387201)"><g><path d="M 18.140625 -19.207031 L 17.609375 -17.394531 C 15.9375 -18.851562 13.765625 -19.742188 11.277344 -19.742188 C 5.511719 -19.742188 1.210938 -15.402344 1.210938 -9.605469 C 1.210938 -3.804688 5.511719 0.570312 11.277344 0.570312 C 13.730469 0.570312 15.863281 -0.285156 17.5 -1.742188 L 17.964844 0 L 22.019531 0 L 22.019531 -19.207031 Z M 11.703125 -4.339844 C 8.679688 -4.339844 6.472656 -6.617188 6.472656 -9.605469 C 6.472656 -12.628906 8.679688 -14.867188 11.703125 -14.867188 C 14.726562 -14.867188 16.933594 -12.628906 16.933594 -9.605469 C 16.933594 -6.582031 14.726562 -4.339844 11.703125 -4.339844 Z M 11.703125 -4.339844 "/></g></g></g><g fill="#202020" fill-opacity="1"><g transform="translate(326.780897, 221.387201)"><g><path d="M 11.417969 0.570312 C 16.433594 0.570312 20.382812 -2.703125 21.273438 -7.542969 L 16.042969 -7.542969 C 15.152344 -5.476562 13.515625 -4.339844 11.417969 -4.339844 C 8.644531 -4.339844 6.472656 -6.652344 6.472656 -9.605469 C 6.472656 -12.59375 8.609375 -14.867188 11.417969 -14.867188 C 13.480469 -14.867188 15.222656 -13.730469 16.042969 -11.84375 L 21.199219 -11.84375 C 20.277344 -16.578125 16.433594 -19.742188 11.453125 -19.742188 C 5.621094 -19.742188 1.210938 -15.402344 1.210938 -9.640625 C 1.210938 -3.878906 5.621094 0.570312 11.417969 0.570312 Z M 11.417969 0.570312 "/></g></g></g><g fill="#202020" fill-opacity="1"><g transform="translate(349.006661, 221.387201)"><g><path d="M 21.128906 -9.640625 C 21.128906 -15.1875 17.074219 -19.742188 11.167969 -19.742188 C 5.476562 -19.742188 1.210938 -15.367188 1.210938 -9.605469 C 1.210938 -3.839844 5.511719 0.570312 11.167969 0.570312 C 15.652344 0.570312 19.316406 -2.097656 20.703125 -6.296875 L 15.261719 -6.296875 C 14.476562 -4.910156 12.984375 -4.054688 11.167969 -4.054688 C 8.644531 -4.054688 6.9375 -5.511719 6.472656 -8.144531 L 21.023438 -8.144531 C 21.09375 -8.644531 21.128906 -9.140625 21.128906 -9.640625 Z M 11.167969 -15.296875 C 13.515625 -15.296875 15.1875 -14.015625 15.9375 -11.667969 L 6.617188 -11.667969 C 7.222656 -13.945312 8.855469 -15.296875 11.167969 -15.296875 Z M 11.167969 -15.296875 "/></g></g></g></svg>